<?xml version="1.0" encoding="UTF-8"?>
<svg width="391px" height="382px" viewBox="0 0 391 382" version="1.1" xmlns="http://www.w3.org/2000/svg" xmlns:xlink="http://www.w3.org/1999/xlink">
    <!-- Generator: Sketch 58 (84663) - https://sketch.com -->
    <title>no_data</title>
    <desc>Created with Sketch.</desc>
    <defs>
        <linearGradient x1="100%" y1="50%" x2="0%" y2="50%" id="linearGradient-1">
            <stop stop-color="#1D8AE7" offset="0%"></stop>
            <stop stop-color="#1D8AE7" offset="100%"></stop>
        </linearGradient>
        <linearGradient x1="100%" y1="50%" x2="0%" y2="50%" id="linearGradient-2">
            <stop stop-color="#1A6CB1" offset="0%"></stop>
            <stop stop-color="#1D8AE7" offset="100%"></stop>
        </linearGradient>
        <linearGradient x1="100%" y1="50%" x2="0%" y2="50%" id="linearGradient-3">
            <stop stop-color="#156FBD" offset="0%"></stop>
            <stop stop-color="#1D8AE7" offset="100%"></stop>
        </linearGradient>
        <linearGradient x1="100%" y1="50%" x2="0%" y2="50%" id="linearGradient-4">
            <stop stop-color="#1D8AE7" offset="0%"></stop>
            <stop stop-color="#1D8AE7" offset="100%"></stop>
        </linearGradient>
        <linearGradient x1="100%" y1="50%" x2="0%" y2="50%" id="linearGradient-5">
            <stop stop-color="#1160A4" offset="0%"></stop>
            <stop stop-color="#1D8AE7" offset="100%"></stop>
        </linearGradient>
        <linearGradient x1="100%" y1="50%" x2="0%" y2="50%" id="linearGradient-6">
            <stop stop-color="#0E6DBD" offset="0%"></stop>
            <stop stop-color="#1D8AE7" offset="100%"></stop>
        </linearGradient>
    </defs>
    <g id="Page-1" stroke="none" stroke-width="1" fill="none" fill-rule="evenodd">
        <g id="no_data" fill-rule="nonzero">
            <path d="M248.083484,85.798419 L142.785151,85.798419 C137.788982,85.8044974 133.740302,89.8537168 133.734225,94.8505517 L133.734225,328.90853 L132.527435,329.27668 L106.696056,337.188244 C104.147011,337.965576 101.450004,336.531803 100.668296,333.983789 L23.8317698,82.9681189 C23.0531429,80.4185494 24.4872332,77.7201858 27.0358338,76.9393985 L66.8419388,64.7491931 L182.241244,29.4217366 L222.047048,17.2315312 C223.270498,16.8549426 224.593474,16.9804842 225.724278,17.5804759 C226.855082,18.1804676 227.700853,19.2056378 228.075109,20.4299514 L247.715498,84.591468 L248.083484,85.798419 Z" id="Path" fill="url(#linearGradient-1)" opacity="0.198962984"></path>
            <path d="M271.060828,84.591468 L247.38964,7.2621157 C246.594267,4.65995039 244.797488,2.48059598 242.394889,1.20386852 C239.992291,-0.0728589356 237.180856,-0.342283712 234.579563,0.454911912 L178.614671,17.5875817 L63.2215623,52.9210851 L7.25667037,70.0597897 C1.84333837,71.7222577 -1.20197482,77.4544399 0.450205123,82.8715748 L81.3534633,347.151606 C82.6766686,351.462663 86.6558214,354.406994 91.1648239,354.411418 C92.1814367,354.411418 93.1923291,354.259306 94.1635284,353.95881 L132.527435,342.215177 L133.734225,341.841022 L133.734225,340.579758 L132.527435,340.947878 L93.8076218,352.806172 C89.0294951,354.262879 83.9739689,351.576857 82.5060323,346.801591 L1.60895897,82.5155243 C0.903471511,80.2204067 1.139963,77.7388704 2.26626084,75.6183693 C3.39255868,73.4978682 5.31611227,71.9126488 7.61256485,71.2124279 L63.5774568,54.0737233 L178.970873,18.7462668 L234.935765,1.60756221 C235.798203,1.34432561 236.694827,1.21010881 237.596532,1.20926837 C241.568846,1.21818875 245.072052,3.8140785 246.237343,7.61214357 L269.799799,84.5914801 L270.173976,85.7984311 L271.429086,85.7984311 L271.060828,84.591468 Z" id="Path" fill="#1D8AE7"></path>
            <path d="M68.8290273,73.2945754 L61.0570756,47.9052863 C60.6352885,46.5279273 60.7779503,45.0393966 61.4536679,43.7672513 C62.1293856,42.495106 63.2827893,41.543588 64.6600682,41.1220827 L170.820792,8.61661649 C173.688314,7.74147084 176.722897,9.35355612 177.603387,12.2197877 L185.375339,37.6093725 C186.249788,40.4772207 184.638127,43.5118151 181.772648,44.3928718 L75.6116283,76.898338 C75.0975382,77.0561337 74.5628172,77.1367229 74.0250613,77.1367229 C71.6377367,77.135022 69.5304725,75.5768298 68.8290273,73.2945754 Z" id="Path" fill="url(#linearGradient-2)"></path>
            <ellipse id="Oval" fill="url(#linearGradient-3)" cx="114.737689" cy="15.0595202" rx="12.0679012" ry="12.0695103"></ellipse>
            <ellipse id="Oval" fill="#FFFFFF" cx="114.737689" cy="15.0595202" rx="7.64176917" ry="7.64278806"></ellipse>
            <path d="M363.627882,351.327645 L159.680351,351.327645 C156.849113,351.324383 154.554755,349.029718 154.551493,346.198103 L154.551493,101.79052 C154.554656,98.9588635 156.849072,96.6641411 159.680351,96.6609783 L363.627882,96.6609783 C366.459119,96.664244 368.753475,98.9589062 368.75674,101.79052 L368.75674,346.198103 C368.753372,349.029674 366.459076,351.324276 363.627882,351.327645 Z" id="Path" fill="url(#linearGradient-4)" opacity="0.192220052"></path>
            <path d="M269.799811,84.591468 L142.785151,84.591468 C137.123293,84.5994819 132.535447,89.187939 132.527435,94.8505517 L132.527435,340.947866 L133.734225,340.579746 L133.734225,94.8505517 C133.740302,89.8537168 137.788982,85.8044974 142.785151,85.798419 L270.173989,85.798419 L269.799811,84.591468 Z M380.522805,84.591468 L142.785151,84.591468 C137.123293,84.5994819 132.535447,89.187939 132.527435,94.8505517 L132.527435,371.242337 C132.535444,376.904951 137.123292,381.49341 142.785151,381.501421 L380.522805,381.501421 C386.184664,381.49341 390.772512,376.904951 390.780521,371.242337 L390.780521,94.8505517 C390.772508,89.187939 386.184663,84.5994819 380.522805,84.591468 L380.522805,84.591468 Z M389.573731,371.242337 C389.567653,376.239172 385.518974,380.288391 380.522805,380.29447 L142.785151,380.29447 C137.788982,380.288391 133.740302,376.239172 133.734225,371.242337 L133.734225,94.8505517 C133.740302,89.8537168 137.788982,85.8044974 142.785151,85.798419 L380.522805,85.798419 C385.518974,85.8044974 389.567653,89.8537168 389.573731,94.8505517 L389.573731,371.242337 Z" id="Shape" fill="#1D8AE7"></path>
            <path d="M317.166462,111.144391 L206.141771,111.144391 C203.143957,111.141015 200.714591,108.711325 200.711215,105.713111 L200.711215,79.1601884 C200.714594,76.1619762 203.143958,73.7322877 206.141771,73.7289088 L317.166462,73.7289088 C320.164275,73.7322877 322.593639,76.1619762 322.597018,79.1601884 L322.597018,105.713111 C322.593643,108.711325 320.164276,111.141015 317.166462,111.144391 Z" id="Path" fill="url(#linearGradient-5)"></path>
            <ellipse id="Oval" fill="url(#linearGradient-6)" cx="261.653978" cy="63.4698311" rx="12.0679012" ry="12.0695103"></ellipse>
            <ellipse id="Oval" fill="#FFFFFF" cx="261.653978" cy="63.4698311" rx="7.3504802" ry="7.35146025"></ellipse>
        </g>
    </g>
</svg>