<?xml version="1.0" encoding="UTF-8"?>
<svg width="1063px" height="529px" viewBox="0 0 1063 529" version="1.1" xmlns="http://www.w3.org/2000/svg" xmlns:xlink="http://www.w3.org/1999/xlink">
    <!-- Generator: Sketch 58 (84663) - https://sketch.com -->
    <title>cargo</title>
    <desc>Created with Sketch.</desc>
    <g id="Page-1" stroke="none" stroke-width="1" fill="none" fill-rule="evenodd">
        <g id="cargo" fill-rule="nonzero">
            <path d="M349.04907,401.01383 C323.14349,400.39377 295.37158,414.90915 288,439.7515 L428.62439,434.02677 C425.964897,432.18845 423.293427,430.373117 420.60998,428.58077 C399.03372,414.22995 374.95459,401.63394 349.04907,401.01383 Z" id="Path" fill="#F2F2F2"></path>
            <path d="M428.62439,434.02677 C447.32471,446.9531 465.57452,460.74851 486.41095,469.72208 C538.00513,491.94199 597.3988,481.57926 651.68616,467.13724 C705.97351,452.69524 761.38928,434.34531 817.0694,441.78885 C848.64282,446.00974 878.45099,458.36252 908.92731,467.63016 C939.40363,476.8978 972.19476,483.10361 1002.94311,474.78293 C1033.69153,466.46225 1061.42611,440.0773 1062.23004,408.23313 C830.09759,365.31369 614.88486,364.03934 428.62439,434.02677 Z" id="Path" fill="#F2F2F2"></path>
            <path d="M61.04907,447.01383 C35.14349,446.39377 7.37158,460.90915 0,485.7515 L140.62439,480.02677 C137.964897,478.18845 135.293427,476.373117 132.60998,474.58077 C111.03372,460.22995 86.95459,447.63394 61.04907,447.01383 Z" id="Path" fill="#F2F2F2"></path>
            <path d="M140.62439,480.02677 C159.32471,492.9531 177.57452,506.74851 198.41095,515.72208 C250.00513,537.94199 309.3988,527.57926 363.68616,513.13724 C417.97351,498.69524 473.38928,480.34531 529.0694,487.78885 C560.64282,492.00974 590.45099,504.36252 620.92731,513.63016 C651.40363,522.8978 684.19476,529.10361 714.94311,520.78293 C745.69153,512.46225 773.42611,486.0773 774.23004,454.23313 C542.09759,411.31369 326.88486,410.03934 140.62439,480.02677 Z" id="Path" fill="#F2F2F2"></path>
            <path d="M452.33664,265.86841 L306.97664,265.86841 C302.65894,265.871168 299.159431,269.37065 299.15664,273.68835 L299.15664,326.64835 C299.159398,330.966074 302.658916,334.465592 306.97664,334.46835 L452.33664,334.46835 C456.654364,334.465592 460.153882,330.966074 460.15664,326.64835 L460.15664,273.68835 C460.153849,269.37065 456.65434,265.871168 452.33664,265.86841 Z" id="Path" fill="#E6E6E6"></path>
            <rect id="Rectangle" fill="#CCCCCC" x="309.65665" y="265.86845" width="4" height="68.59998"></rect>
            <rect id="Rectangle" fill="#CCCCCC" x="326.65665" y="265.86845" width="4" height="68.59998"></rect>
            <rect id="Rectangle" fill="#CCCCCC" x="343.65665" y="265.86845" width="4" height="68.59998"></rect>
            <rect id="Rectangle" fill="#CCCCCC" x="360.65665" y="265.86845" width="4" height="68.59998"></rect>
            <rect id="Rectangle" fill="#CCCCCC" x="377.65665" y="265.86845" width="4" height="68.59998"></rect>
            <rect id="Rectangle" fill="#CCCCCC" x="394.65665" y="265.86845" width="4" height="68.59998"></rect>
            <rect id="Rectangle" fill="#CCCCCC" x="411.65665" y="265.86845" width="4" height="68.59998"></rect>
            <rect id="Rectangle" fill="#CCCCCC" x="428.65665" y="265.86845" width="4" height="68.59998"></rect>
            <rect id="Rectangle" fill="#CCCCCC" x="445.65665" y="265.86845" width="4" height="68.59998"></rect>
            <path d="M602.38608,141.99546 L584.54001,103.59928 C581.866584,97.8474404 576.099651,94.1684468 569.75687,94.16843 L548.72887,94.16843 C553.114177,86.6042682 551.429521,76.9827468 544.735036,71.3585728 C538.040552,65.7343987 528.272658,65.7343987 521.578174,71.3585728 C514.883689,76.9827468 513.199033,86.6042682 517.58434,94.16843 L496.55643,94.16843 C490.213649,94.1684468 484.446716,97.8474404 481.77329,103.59928 L463.92722,141.99546 C461.580747,147.043908 461.972782,152.940726 464.966916,157.634117 C467.96105,162.327509 473.143246,165.168459 478.71036,165.16846 L528.15665,165.16846 L528.15665,351.16846 L538.15665,351.16846 L538.15665,165.16846 L587.60294,165.16846 C593.170054,165.168459 598.35225,162.327509 601.346384,157.634117 C604.340518,152.940726 604.732553,147.043908 602.38608,141.99546 Z" id="Path" fill="#E6E6E6"></path>
            <path d="M809.33664,265.86841 L663.97664,265.86841 C659.65894,265.871168 656.159431,269.37065 656.15664,273.68835 L656.15664,326.64835 C656.159398,330.966074 659.658916,334.465592 663.97664,334.46835 L809.33664,334.46835 C813.654364,334.465592 817.153882,330.966074 817.15664,326.64835 L817.15664,273.68835 C817.153849,269.37065 813.65434,265.871168 809.33664,265.86841 Z" id="Path" fill="#E6E6E6"></path>
            <rect id="Rectangle" fill="#CCCCCC" x="666.65665" y="265.86845" width="4" height="68.59998"></rect>
            <rect id="Rectangle" fill="#CCCCCC" x="683.65665" y="265.86845" width="4" height="68.59998"></rect>
            <rect id="Rectangle" fill="#CCCCCC" x="700.65665" y="265.86845" width="4" height="68.59998"></rect>
            <rect id="Rectangle" fill="#CCCCCC" x="717.65665" y="265.86845" width="4" height="68.59998"></rect>
            <rect id="Rectangle" fill="#CCCCCC" x="734.65665" y="265.86845" width="4" height="68.59998"></rect>
            <rect id="Rectangle" fill="#CCCCCC" x="751.65665" y="265.86845" width="4" height="68.59998"></rect>
            <rect id="Rectangle" fill="#CCCCCC" x="768.65665" y="265.86845" width="4" height="68.59998"></rect>
            <rect id="Rectangle" fill="#CCCCCC" x="785.65665" y="265.86845" width="4" height="68.59998"></rect>
            <rect id="Rectangle" fill="#CCCCCC" x="802.65665" y="265.86845" width="4" height="68.59998"></rect>
            <path d="M647.33664,265.86841 L501.97664,265.86841 C497.65894,265.871168 494.159431,269.37065 494.15664,273.68835 L494.15664,326.64835 C494.159398,330.966074 497.658916,334.465592 501.97664,334.46835 L647.33664,334.46835 C651.654364,334.465592 655.153882,330.966074 655.15664,326.64835 L655.15664,273.68835 C655.153849,269.37065 651.65434,265.871168 647.33664,265.86841 Z" id="Path" fill="#E6E6E6"></path>
            <rect id="Rectangle" fill="#CCCCCC" x="504.65665" y="265.86845" width="4" height="68.59998"></rect>
            <rect id="Rectangle" fill="#CCCCCC" x="521.65665" y="265.86845" width="4" height="68.59998"></rect>
            <rect id="Rectangle" fill="#CCCCCC" x="538.65665" y="265.86845" width="4" height="68.59998"></rect>
            <rect id="Rectangle" fill="#CCCCCC" x="555.65665" y="265.86845" width="4" height="68.59998"></rect>
            <rect id="Rectangle" fill="#CCCCCC" x="572.65665" y="265.86845" width="4" height="68.59998"></rect>
            <rect id="Rectangle" fill="#CCCCCC" x="589.65665" y="265.86845" width="4" height="68.59998"></rect>
            <rect id="Rectangle" fill="#CCCCCC" x="606.65665" y="265.86845" width="4" height="68.59998"></rect>
            <rect id="Rectangle" fill="#CCCCCC" x="623.65665" y="265.86845" width="4" height="68.59998"></rect>
            <rect id="Rectangle" fill="#CCCCCC" x="640.65665" y="265.86845" width="4" height="68.59998"></rect>
            <path d="M820.33664,196.86841 L674.97664,196.86841 C670.65894,196.871168 667.159431,200.37065 667.15664,204.68835 L667.15664,257.64835 C667.159398,261.966074 670.658916,265.465592 674.97664,265.46835 L820.33664,265.46835 C824.654364,265.465592 828.153882,261.966074 828.15664,257.64835 L828.15664,204.68835 C828.153849,200.37065 824.65434,196.871168 820.33664,196.86841 L820.33664,196.86841 Z" id="Path" fill="#E6E6E6"></path>
            <rect id="Rectangle" fill="#CCCCCC" x="677.65665" y="196.86845" width="4" height="68.59998"></rect>
            <rect id="Rectangle" fill="#CCCCCC" x="694.65665" y="196.86845" width="4" height="68.59998"></rect>
            <rect id="Rectangle" fill="#CCCCCC" x="711.65665" y="196.86845" width="4" height="68.59998"></rect>
            <rect id="Rectangle" fill="#CCCCCC" x="728.65665" y="196.86845" width="4" height="68.59998"></rect>
            <rect id="Rectangle" fill="#CCCCCC" x="745.65665" y="196.86845" width="4" height="68.59998"></rect>
            <rect id="Rectangle" fill="#CCCCCC" x="762.65665" y="196.86845" width="4" height="68.59998"></rect>
            <rect id="Rectangle" fill="#CCCCCC" x="779.65665" y="196.86845" width="4" height="68.59998"></rect>
            <rect id="Rectangle" fill="#CCCCCC" x="796.65665" y="196.86845" width="4" height="68.59998"></rect>
            <rect id="Rectangle" fill="#CCCCCC" x="813.65665" y="196.86845" width="4" height="68.59998"></rect>
            <path d="M777.33664,270.86841 L631.97664,270.86841 C627.65894,270.871168 624.159431,274.37065 624.15664,278.68835 L624.15664,331.64835 C624.159398,335.966074 627.658916,339.465592 631.97664,339.46835 L777.33664,339.46835 C781.654364,339.465592 785.153882,335.966074 785.15664,331.64835 L785.15664,278.68835 C785.153849,274.37065 781.65434,270.871168 777.33664,270.86841 Z" id="Path" fill="#2E7EDF"></path>
            <rect id="Rectangle" fill="#3F3D56" x="634.65665" y="270.86845" width="4" height="68.59998"></rect>
            <rect id="Rectangle" fill="#3F3D56" x="651.65665" y="270.86845" width="4" height="68.59998"></rect>
            <rect id="Rectangle" fill="#3F3D56" x="668.65665" y="270.86845" width="4" height="68.59998"></rect>
            <rect id="Rectangle" fill="#3F3D56" x="685.65665" y="270.86845" width="4" height="68.59998"></rect>
            <rect id="Rectangle" fill="#3F3D56" x="702.65665" y="270.86845" width="4" height="68.59998"></rect>
            <rect id="Rectangle" fill="#3F3D56" x="719.65665" y="270.86845" width="4" height="68.59998"></rect>
            <rect id="Rectangle" fill="#3F3D56" x="736.65665" y="270.86845" width="4" height="68.59998"></rect>
            <rect id="Rectangle" fill="#3F3D56" x="753.65665" y="270.86845" width="4" height="68.59998"></rect>
            <rect id="Rectangle" fill="#3F3D56" x="770.65665" y="270.86845" width="4" height="68.59998"></rect>
            <path d="M594.33664,270.86841 L448.97664,270.86841 C444.65894,270.871168 441.159431,274.37065 441.15664,278.68835 L441.15664,331.64835 C441.159398,335.966074 444.658916,339.465592 448.97664,339.46835 L594.33664,339.46835 C598.654364,339.465592 602.153882,335.966074 602.15664,331.64835 L602.15664,278.68835 C602.153849,274.37065 598.65434,270.871168 594.33664,270.86841 Z" id="Path" fill="#2E7EDF"></path>
            <rect id="Rectangle" fill="#3F3D56" x="451.65665" y="270.86845" width="4" height="68.59998"></rect>
            <rect id="Rectangle" fill="#3F3D56" x="468.65665" y="270.86845" width="4" height="68.59998"></rect>
            <rect id="Rectangle" fill="#3F3D56" x="485.65665" y="270.86845" width="4" height="68.59998"></rect>
            <rect id="Rectangle" fill="#3F3D56" x="502.65665" y="270.86845" width="4" height="68.59998"></rect>
            <rect id="Rectangle" fill="#3F3D56" x="519.65665" y="270.86845" width="4" height="68.59998"></rect>
            <rect id="Rectangle" fill="#3F3D56" x="536.65665" y="270.86845" width="4" height="68.59998"></rect>
            <rect id="Rectangle" fill="#3F3D56" x="553.65665" y="270.86845" width="4" height="68.59998"></rect>
            <rect id="Rectangle" fill="#3F3D56" x="570.65665" y="270.86845" width="4" height="68.59998"></rect>
            <rect id="Rectangle" fill="#3F3D56" x="587.65665" y="270.86845" width="4" height="68.59998"></rect>
            <path d="M649.33664,201.86841 L503.97664,201.86841 C499.65894,201.871168 496.159431,205.37065 496.15664,209.68835 L496.15664,262.64835 C496.159398,266.966074 499.658916,270.465592 503.97664,270.46835 L649.33664,270.46835 C653.654364,270.465592 657.153882,266.966074 657.15664,262.64835 L657.15664,209.68835 C657.153849,205.37065 653.65434,201.871168 649.33664,201.86841 Z" id="Path" fill="#2E7EDF"></path>
            <rect id="Rectangle" fill="#3F3D56" x="506.65665" y="201.86845" width="4" height="68.59998"></rect>
            <rect id="Rectangle" fill="#3F3D56" x="523.65665" y="201.86845" width="4" height="68.59998"></rect>
            <rect id="Rectangle" fill="#3F3D56" x="540.65665" y="201.86845" width="4" height="68.59998"></rect>
            <rect id="Rectangle" fill="#3F3D56" x="557.65665" y="201.86845" width="4" height="68.59998"></rect>
            <rect id="Rectangle" fill="#3F3D56" x="574.65665" y="201.86845" width="4" height="68.59998"></rect>
            <rect id="Rectangle" fill="#3F3D56" x="591.65665" y="201.86845" width="4" height="68.59998"></rect>
            <rect id="Rectangle" fill="#3F3D56" x="608.65665" y="201.86845" width="4" height="68.59998"></rect>
            <rect id="Rectangle" fill="#3F3D56" x="625.65665" y="201.86845" width="4" height="68.59998"></rect>
            <rect id="Rectangle" fill="#3F3D56" x="642.65665" y="201.86845" width="4" height="68.59998"></rect>
            <path d="M399.33664,270.86841 L253.97664,270.86841 C249.65894,270.871168 246.159431,274.37065 246.15664,278.68835 L246.15664,331.64835 C246.159398,335.966074 249.658916,339.465592 253.97664,339.46835 L399.33664,339.46835 C403.654364,339.465592 407.153882,335.966074 407.15664,331.64835 L407.15664,278.68835 C407.153849,274.37065 403.65434,270.871168 399.33664,270.86841 Z" id="Path" fill="#2E7EDF"></path>
            <rect id="Rectangle" fill="#3F3D56" x="256.65665" y="270.86845" width="4" height="68.59998"></rect>
            <rect id="Rectangle" fill="#3F3D56" x="273.65665" y="270.86845" width="4" height="68.59998"></rect>
            <rect id="Rectangle" fill="#3F3D56" x="290.65665" y="270.86845" width="4" height="68.59998"></rect>
            <rect id="Rectangle" fill="#3F3D56" x="307.65665" y="270.86845" width="4" height="68.59998"></rect>
            <rect id="Rectangle" fill="#3F3D56" x="324.65665" y="270.86845" width="4" height="68.59998"></rect>
            <rect id="Rectangle" fill="#3F3D56" x="341.65665" y="270.86845" width="4" height="68.59998"></rect>
            <rect id="Rectangle" fill="#3F3D56" x="358.65665" y="270.86845" width="4" height="68.59998"></rect>
            <rect id="Rectangle" fill="#3F3D56" x="375.65665" y="270.86845" width="4" height="68.59998"></rect>
            <rect id="Rectangle" fill="#3F3D56" x="392.65665" y="270.86845" width="4" height="68.59998"></rect>
            <path d="M435.33664,201.86841 L289.97664,201.86841 C285.65894,201.871168 282.159431,205.37065 282.15664,209.68835 L282.15664,262.64835 C282.159398,266.966074 285.658916,270.465592 289.97664,270.46835 L435.33664,270.46835 C439.654364,270.465592 443.153882,266.966074 443.15664,262.64835 L443.15664,209.68835 C443.153849,205.37065 439.65434,201.871168 435.33664,201.86841 Z" id="Path" fill="#2E7EDF"></path>
            <rect id="Rectangle" fill="#3F3D56" x="292.65665" y="201.86845" width="4" height="68.59998"></rect>
            <rect id="Rectangle" fill="#3F3D56" x="309.65665" y="201.86845" width="4" height="68.59998"></rect>
            <rect id="Rectangle" fill="#3F3D56" x="326.65665" y="201.86845" width="4" height="68.59998"></rect>
            <rect id="Rectangle" fill="#3F3D56" x="343.65665" y="201.86845" width="4" height="68.59998"></rect>
            <rect id="Rectangle" fill="#3F3D56" x="360.65665" y="201.86845" width="4" height="68.59998"></rect>
            <rect id="Rectangle" fill="#3F3D56" x="377.65665" y="201.86845" width="4" height="68.59998"></rect>
            <rect id="Rectangle" fill="#3F3D56" x="394.65665" y="201.86845" width="4" height="68.59998"></rect>
            <rect id="Rectangle" fill="#3F3D56" x="411.65665" y="201.86845" width="4" height="68.59998"></rect>
            <rect id="Rectangle" fill="#3F3D56" x="428.65665" y="201.86845" width="4" height="68.59998"></rect>
            <path d="M905.31314,343.51847 C905.072527,342.65389 904.7625,341.810149 904.38608,340.99547 L886.54001,302.59929 C883.866584,296.84745 878.099651,293.168457 871.75687,293.16844 L798.55643,293.16844 C792.213649,293.168457 786.446716,296.84745 783.77329,302.59929 L769.10029,334.16844 L350.7482,334.16844 L336.54001,303.59929 C333.866584,297.84745 328.099651,294.168457 321.75687,294.16844 L248.55643,294.16844 C245.746863,294.169753 242.98548,294.898342 240.54099,296.28331 L228.23343,274.30547 C226.561987,271.320767 223.086213,269.840856 219.7762,270.70456 C216.466187,271.568265 214.15665,274.557776 214.15665,277.97862 L214.15665,450.58573 C214.15665,455.779387 216.219811,460.760328 219.892281,464.432799 C223.564752,468.105269 228.545693,470.16843 233.73935,470.16843 L793.91702,470.16843 C799.18639,470.16843 804.233405,468.044827 807.91763,464.2775 L902.61618,367.44285 C908.950095,361.05634 910.066281,351.154807 905.31314,343.51847 Z" id="Path" fill="#3F3D56"></path>
            <path d="M806.75528,331.66841 L797.55801,331.66841 C793.472289,331.663737 790.161323,328.352771 790.15665,324.26705 L790.15665,314.0698 C790.161323,309.984077 793.472287,306.673109 797.55801,306.66843 L806.75528,306.66843 C810.841007,306.673103 814.151977,309.984073 814.15665,314.0698 L814.15665,324.26707 C814.15196,328.352785 810.840995,331.663737 806.75528,331.66841 L806.75528,331.66841 Z" id="Path" fill="#FFFFFF"></path>
            <path d="M839.75528,331.66841 L830.55801,331.66841 C826.472289,331.663737 823.161323,328.352771 823.15665,324.26705 L823.15665,314.0698 C823.161323,309.984077 826.472287,306.673109 830.55801,306.66843 L839.75528,306.66843 C843.841007,306.673103 847.151977,309.984073 847.15665,314.0698 L847.15665,324.26707 C847.15196,328.352785 843.840995,331.663737 839.75528,331.66841 L839.75528,331.66841 Z" id="Path" fill="#FFFFFF"></path>
            <path d="M872.75528,331.66841 L863.55801,331.66841 C859.472289,331.663737 856.161323,328.352771 856.15665,324.26705 L856.15665,314.0698 C856.161323,309.984077 859.472287,306.673109 863.55801,306.66843 L872.75528,306.66843 C876.841007,306.673103 880.151977,309.984073 880.15665,314.0698 L880.15665,324.26707 C880.15196,328.352785 876.840995,331.663737 872.75528,331.66841 L872.75528,331.66841 Z" id="Path" fill="#FFFFFF"></path>
            <path d="M504.75528,132.66841 L495.55801,132.66841 C491.472289,132.663737 488.161323,129.352771 488.15665,125.26705 L488.15665,115.0698 C488.161323,110.984077 491.472287,107.673109 495.55801,107.66843 L504.75528,107.66843 C508.841007,107.673103 512.151977,110.984073 512.15665,115.0698 L512.15665,125.26707 C512.15196,129.352785 508.840995,132.663737 504.75528,132.66841 L504.75528,132.66841 Z" id="Path" fill="#FFFFFF"></path>
            <path d="M537.75528,132.66841 L528.55801,132.66841 C524.472289,132.663737 521.161323,129.352771 521.15665,125.26705 L521.15665,115.0698 C521.161323,110.984077 524.472287,107.673109 528.55801,107.66843 L537.75528,107.66843 C541.841007,107.673103 545.151977,110.984073 545.15665,115.0698 L545.15665,125.26707 C545.15196,129.352785 541.840995,132.663737 537.75528,132.66841 Z" id="Path" fill="#FFFFFF"></path>
            <path d="M570.75528,132.66841 L561.55801,132.66841 C557.472289,132.663737 554.161323,129.352771 554.15665,125.26705 L554.15665,115.0698 C554.161323,110.984077 557.472287,107.673109 561.55801,107.66843 L570.75528,107.66843 C574.841007,107.673103 578.151977,110.984073 578.15665,115.0698 L578.15665,125.26707 C578.15196,129.352785 574.840995,132.663737 570.75528,132.66841 Z" id="Path" fill="#FFFFFF"></path>
            <path d="M256.75528,332.66841 L247.55801,332.66841 C243.472289,332.663737 240.161323,329.352771 240.15665,325.26705 L240.15665,315.0698 C240.161323,310.984077 243.472287,307.673109 247.55801,307.66843 L256.75528,307.66843 C260.841007,307.673103 264.151977,310.984073 264.15665,315.0698 L264.15665,325.26707 C264.15196,329.352785 260.840995,332.663737 256.75528,332.66841 Z" id="Path" fill="#FFFFFF"></path>
            <path d="M289.75528,332.66841 L280.55801,332.66841 C276.472289,332.663737 273.161323,329.352771 273.15665,325.26705 L273.15665,315.0698 C273.161323,310.984077 276.472287,307.673109 280.55801,307.66843 L289.75528,307.66843 C293.841007,307.673103 297.151977,310.984073 297.15665,315.0698 L297.15665,325.26707 C297.15196,329.352785 293.840995,332.663737 289.75528,332.66841 Z" id="Path" fill="#FFFFFF"></path>
            <path d="M322.75528,332.66841 L313.55801,332.66841 C309.472289,332.663737 306.161323,329.352771 306.15665,325.26705 L306.15665,315.0698 C306.161323,310.984077 309.472287,307.673109 313.55801,307.66843 L322.75528,307.66843 C326.841007,307.673103 330.151977,310.984073 330.15665,315.0698 L330.15665,325.26707 C330.15196,329.352785 326.840995,332.663737 322.75528,332.66841 L322.75528,332.66841 Z" id="Path" fill="#FFFFFF"></path>
            <path d="M199.67966,437.98325 C173.77408,437.36325 146.00217,451.87858 138.63059,476.72092 L279.25497,470.99619 C276.59549,469.15787 273.924023,467.342537 271.24057,465.55019 C249.66434,451.19941 225.58517,438.60341 199.67966,437.98325 Z" id="Path" fill="#2E7EDF"></path>
            <path d="M279.25497,470.99619 C297.95529,483.92252 316.20511,497.71793 337.04153,506.6915 C388.63572,528.91141 448.02939,518.54868 502.31672,504.10667 C556.60405,489.66466 612.01985,471.31473 667.69996,478.75828 C699.27339,482.97916 729.08155,495.33195 759.55787,504.59959 C790.03419,513.86723 822.82533,520.07304 853.57368,511.75236 C884.32209,503.43168 912.05668,477.04673 912.86061,445.20255 C680.72818,402.28312 465.51544,401.00877 279.25497,470.99619 Z" id="Path" fill="#2E7EDF"></path>
            <circle id="Oval" fill="#FD6584" cx="767.07627" cy="27.12699" r="26.70075"></circle>
            <path d="M826.83444,14.48374 C825.295402,9.43761831 820.906531,5.78742905 815.66444,5.19374 C815.604544,5.18873445 815.544336,5.18873445 815.48444,5.19374 C815.412551,5.17125669 815.338985,5.15453712 815.26444,5.14374 C806.32444,3.98374 796.38444,6.80374 789.69444,12.94374 L789.62107,13.01108 C786.17362,16.2003855 781.319951,17.375954 776.79525,16.11752 C775.571777,15.7797463 774.302115,15.6400348 773.03447,15.70369 C767.490054,16.0702319 762.770659,19.8737444 761.23447,25.21369 C761.0652,25.8676414 761.345871,26.5550819 761.92447,26.90369 C762.728712,27.5915634 763.685027,28.07829 764.71447,28.32369 C766.92447,28.79369 769.15447,29.22369 771.38447,29.61369 C775.74447,30.37369 780.127803,30.9903567 784.53447,31.46369 C787.44447,31.77369 790.361137,32.0203567 793.28447,32.20369 C799.32447,32.58369 805.39447,32.67369 811.44447,32.48369 C814.44447,32.38369 817.32447,32.28369 820.06447,30.96369 C822.061087,29.9817598 823.767198,28.4962371 825.01447,26.65369 C827.391388,23.065942 828.057773,18.609892 826.83444,14.48374 Z" id="Path" fill="#E6E6E6"></path>
            <path d="M771.90444,53.38376 C771.853836,52.2649544 771.665756,51.1566266 771.34444,50.08376 C769.798246,45.0383877 765.407625,41.3900094 760.16444,40.79376 C760.107884,40.7887574 760.050996,40.7887574 759.99444,40.79376 C759.918889,40.7723231 759.842072,40.7556239 759.76444,40.74376 C754.816509,40.1376621 749.795604,40.6537661 745.07444,42.25376 C741.019287,43.5770782 737.289022,45.7412245 734.12744,48.60476 C730.681687,51.7976716 725.826872,52.9757596 721.30093,51.71729 C720.075485,51.3795959 718.803934,51.2399775 717.53441,51.30372 C711.989985,51.6702388 707.270579,55.4737607 705.73441,60.81372 C705.574874,61.466983 705.853245,62.1487907 706.42441,62.50372 C707.229924,63.1896883 708.185758,63.6761705 709.21441,63.92372 C711.43441,64.39372 713.65441,64.82372 715.89441,65.21372 C720.25441,65.97372 724.63441,66.5903867 729.03441,67.06372 C737.973539,68.023362 746.968294,68.3641737 755.95441,68.08372 C758.94441,67.98372 761.83441,67.88372 764.57441,66.56372 C766.56809,65.5814306 768.270874,64.0958037 769.51441,62.25372 C771.267381,59.6415058 772.10765,56.5230714 771.90444,53.38376 L771.90444,53.38376 Z" id="Path" fill="#E6E6E6"></path>
            <path d="M781.81681,118.62941 C781.49804,120.020745 781.721637,121.481269 782.44206,122.71351 C783.30959,124.002177 784.938784,124.541127 786.40367,124.02404 C789.20067,123.15566 791.96011,122.13864 794.7332,121.19631 C795.519581,120.960274 795.981133,120.14737 795.78086,119.35113 C795.554077,118.557424 794.73347,118.091498 793.93568,118.30347 L787.00588,120.65832 C786.48315,120.83595 785.9623,121.03794 785.42964,121.18379 C785.37395,121.19904 785.17044,121.24379 785.1814,121.24279 C785.20696,121.24042 785.36498,121.25729 785.1896,121.24514 C785.0896,121.21506 785.09029,121.22162 785.19167,121.26482 L785.05913,121.18938 C785.18013,121.29009 785.04455,121.1759 785.00286,121.13361 C784.96612,121.09633 784.8581,120.94767 784.94153,121.06985 C784.881396,120.982638 784.828844,120.890434 784.78445,120.79425 C784.85764,120.95631 784.7202,120.55543 784.7105,120.49994 C784.654331,119.874582 784.690149,119.244367 784.81681,118.6294 C784.812794,117.802642 784.143568,117.133416 783.31681,117.1294 C782.496944,117.149713 781.837123,117.809534 781.81681,118.6294 L781.81681,118.62941 Z" id="Path" fill="#3F3D56"></path>
            <path d="M670.13526,123.89652 L677.52845,133.2187 C678.46927,134.405 680.48617,133.12076 680.03552,131.75928 C679.11394,128.97501 682.29498,127.42359 684.4907,126.96514 C687.40399,126.35686 690.32721,126.45553 693.09152,125.20345 C694.84752,124.40807 693.32419,121.82182 691.57736,122.61304 C688.34373,124.07769 684.57324,123.40626 681.29887,124.83094 C678.37219,126.10435 676.05806,129.27994 677.14269,132.5568 L679.64972,131.09741 L672.25653,121.77522 C671.668393,121.195137 670.723347,121.195137 670.13521,121.77522 C669.56796,122.368567 669.56796,123.303203 670.13521,123.89655 L670.13526,123.89652 Z" id="Path" fill="#3F3D56"></path>
            <path d="M655.13526,14.89652 L662.52845,24.2187 C663.46927,25.405 665.48617,24.12076 665.03552,22.75928 C664.11394,19.97501 667.29498,18.42359 669.4907,17.96514 C672.40399,17.35686 675.32721,17.45553 678.09152,16.20345 C679.84752,15.40807 678.32419,12.82182 676.57736,13.61304 C673.34373,15.07769 669.57324,14.40626 666.29887,15.83094 C663.37219,17.10435 661.05806,20.27994 662.14269,23.5568 L664.64972,22.09741 L657.25653,12.77522 C656.668393,12.1951375 655.723347,12.1951375 655.13521,12.77522 C654.56796,13.3685669 654.56796,14.3032031 655.13521,14.89655 L655.13526,14.89652 Z" id="Path" fill="#3F3D56"></path>
        </g>
    </g>
</svg>